<svg width="100" height="77" viewBox="0 0 100 100" fill="none" xmlns="http://www.w3.org/2000/svg">
<rect width="100" height="100" fill="#372C2E"/>
<path d="M15.67 82.5455V61.2755H17.77V73.6355L29.5 61.2455H31.81L23.11 70.6055L32.26 82.5455H29.89L21.76 71.8655L17.77 76.0055V82.5455H15.67ZM42.3273 68.7155C40.9673 68.7555 39.7673 69.1355 38.7273 69.8555C37.7073 70.5755 36.9873 71.5655 36.5673 72.8255V82.5455H34.5273V66.9155H36.4473V70.6655C36.9873 69.5655 37.6973 68.6755 38.5773 67.9955C39.4773 67.3155 40.4273 66.9355 41.4273 66.8555C41.6273 66.8355 41.7973 66.8255 41.9373 66.8255C42.0973 66.8255 42.2273 66.8355 42.3273 66.8555V68.7155ZM43.7263 78.0455C43.7263 77.0655 44.0063 76.2255 44.5663 75.5255C45.1263 74.8055 45.8963 74.2555 46.8763 73.8755C47.8763 73.4755 49.0263 73.2755 50.3263 73.2755C51.0863 73.2755 51.8763 73.3355 52.6963 73.4555C53.5163 73.5755 54.2463 73.7555 54.8863 73.9955V72.6755C54.8863 71.3555 54.4963 70.3055 53.7163 69.5255C52.9363 68.7455 51.8563 68.3555 50.4763 68.3555C49.6363 68.3555 48.8063 68.5155 47.9863 68.8355C47.1863 69.1355 46.3463 69.5855 45.4663 70.1855L44.6863 68.7455C45.7063 68.0455 46.7063 67.5255 47.6863 67.1855C48.6663 66.8255 49.6663 66.6455 50.6863 66.6455C52.6063 66.6455 54.1263 67.1955 55.2463 68.2955C56.3663 69.3955 56.9263 70.9155 56.9263 72.8555V80.0855C56.9263 80.3655 56.9863 80.5755 57.1063 80.7155C57.2263 80.8355 57.4163 80.9055 57.6763 80.9255V82.5455C57.4563 82.5655 57.2663 82.5855 57.1063 82.6055C56.9463 82.6255 56.8263 82.6255 56.7463 82.6055C56.2463 82.5855 55.8663 82.4255 55.6063 82.1255C55.3463 81.8255 55.2063 81.5055 55.1863 81.1655L55.1563 80.0255C54.4563 80.9255 53.5463 81.6255 52.4263 82.1255C51.3063 82.6055 50.1663 82.8455 49.0063 82.8455C48.0063 82.8455 47.0963 82.6355 46.2763 82.2155C45.4763 81.7755 44.8463 81.1955 44.3863 80.4755C43.9463 79.7355 43.7263 78.9255 43.7263 78.0455ZM54.1963 79.2455C54.4163 78.9655 54.5863 78.6955 54.7063 78.4355C54.8263 78.1755 54.8863 77.9455 54.8863 77.7455V75.4655C54.2063 75.2055 53.4963 75.0055 52.7563 74.8655C52.0363 74.7255 51.3063 74.6555 50.5663 74.6555C49.1063 74.6555 47.9263 74.9455 47.0263 75.5255C46.1263 76.1055 45.6763 76.8955 45.6763 77.8955C45.6763 78.4755 45.8263 79.0255 46.1263 79.5455C46.4263 80.0455 46.8663 80.4655 47.4463 80.8055C48.0263 81.1255 48.7063 81.2855 49.4863 81.2855C50.4663 81.2855 51.3763 81.0955 52.2163 80.7155C53.0763 80.3355 53.7363 79.8455 54.1963 79.2455ZM61.9668 82.5455V68.5355H59.8068V66.9155H61.9668V66.4955C61.9668 65.2155 62.1468 64.1155 62.5068 63.1955C62.8868 62.2755 63.4168 61.5755 64.0968 61.0955C64.7968 60.5955 65.6168 60.3455 66.5568 60.3455C67.1768 60.3455 67.7768 60.4355 68.3568 60.6155C68.9368 60.7955 69.4368 61.0355 69.8568 61.3355L69.2268 62.8055C68.9668 62.5855 68.6268 62.4155 68.2068 62.2955C67.7868 62.1755 67.3668 62.1155 66.9468 62.1155C66.0068 62.1155 65.2768 62.4855 64.7568 63.2255C64.2568 63.9655 64.0068 65.0355 64.0068 66.4355V66.9155H68.3268V68.5355H64.0068V82.5455H61.9668ZM78.6191 81.7955C78.4591 81.8555 78.2091 81.9655 77.8691 82.1255C77.5291 82.2855 77.1191 82.4255 76.6391 82.5455C76.1591 82.6655 75.6391 82.7255 75.0791 82.7255C74.4991 82.7255 73.9491 82.6155 73.4291 82.3955C72.9291 82.1755 72.5291 81.8455 72.2291 81.4055C71.9291 80.9455 71.7791 80.3855 71.7791 79.7255V68.5355H69.6191V66.9155H71.7791V61.6355H73.8191V66.9155H77.4191V68.5355H73.8191V79.1555C73.8591 79.7155 74.0591 80.1355 74.4191 80.4155C74.7991 80.6955 75.2291 80.8355 75.7091 80.8355C76.2691 80.8355 76.7791 80.7455 77.2391 80.5655C77.6991 80.3655 77.9791 80.2255 78.0791 80.1455L78.6191 81.7955Z" fill="#DEB448"/>
<path d="M34.2636 44.6624C33.0636 44.6624 31.9536 44.3924 30.9336 43.8524C29.9336 43.3124 29.1336 42.5624 28.5336 41.6024C27.9336 40.6624 27.6336 39.5824 27.6336 38.3624C27.6336 37.2424 27.8936 36.2524 28.4136 35.3924C28.9536 34.5124 29.6736 33.8224 30.5736 33.3224C31.4936 32.8024 32.5036 32.5424 33.6036 32.5424C34.8436 32.5424 35.8736 32.9424 36.6936 33.7424C37.5136 34.5224 37.9236 35.5324 37.9236 36.7724C37.9236 37.8924 37.5736 38.7924 36.8736 39.4724C36.1936 40.1324 35.3236 40.4624 34.2636 40.4624C33.7436 40.4624 33.3536 40.3724 33.0936 40.1924C32.8336 39.9924 32.7036 39.7924 32.7036 39.5924C32.7036 39.5124 32.7336 39.4724 32.7936 39.4724C32.8336 39.4724 32.8636 39.5024 32.8836 39.5624C32.9236 39.6224 33.0036 39.7024 33.1236 39.8024C33.2236 39.8824 33.3636 39.9624 33.5436 40.0424C33.7236 40.1224 33.9636 40.1624 34.2636 40.1624C35.2636 40.1624 36.0536 39.8524 36.6336 39.2324C37.2136 38.5924 37.5036 37.7724 37.5036 36.7724C37.5036 35.6524 37.1336 34.7224 36.3936 33.9824C35.6736 33.2424 34.7436 32.8724 33.6036 32.8724C32.5836 32.8724 31.6836 33.1124 30.9036 33.5924C30.1236 34.0724 29.5136 34.7324 29.0736 35.5724C28.6336 36.3924 28.4136 37.3224 28.4136 38.3624C28.4136 39.4424 28.6736 40.4324 29.1936 41.3324C29.7136 42.2324 30.4036 42.9424 31.2636 43.4624C32.1436 44.0024 33.1236 44.2724 34.2036 44.2724C35.8636 44.2724 37.2736 43.9024 38.4336 43.1624C39.5936 42.4424 40.5436 41.4524 41.2836 40.1924C42.0236 38.9124 42.5636 37.4624 42.9036 35.8424C43.2436 34.2024 43.4136 32.4724 43.4136 30.6524C43.4136 28.9724 43.4836 27.5924 43.6236 26.5124C43.7836 25.4124 44.0436 24.5424 44.4036 23.9024C44.7836 23.2424 45.2936 22.7424 45.9336 22.4024H45.7836C44.9236 22.4024 44.0536 22.5224 43.1736 22.7624C42.2936 22.9824 41.4736 23.3124 40.7136 23.7524C39.9736 24.1724 39.3736 24.6924 38.9136 25.3124C38.4536 25.9124 38.2236 26.5924 38.2236 27.3524C38.2236 27.8524 38.3936 28.2724 38.7336 28.6124C39.0736 28.9324 39.4936 29.0924 39.9936 29.0924C40.5136 29.0924 40.9536 28.9224 41.3136 28.5824C41.6936 28.2224 41.8836 27.7624 41.8836 27.2024C41.8836 27.0824 41.8536 26.9324 41.7936 26.7524C41.7536 26.5524 41.7336 26.4424 41.7336 26.4224C41.7336 26.3224 41.7936 26.2724 41.9136 26.2724C42.0336 26.2724 42.1236 26.4124 42.1836 26.6924C42.2436 26.9524 42.2736 27.1424 42.2736 27.2624C42.2736 27.9224 42.0236 28.4724 41.5236 28.9124C41.0236 29.3324 40.4336 29.5424 39.7536 29.5424C39.0936 29.5424 38.5636 29.3324 38.1636 28.9124C37.7636 28.4924 37.5636 27.9524 37.5636 27.2924C37.5636 26.4924 37.8336 25.7724 38.3736 25.1324C38.9136 24.4924 39.6136 23.9424 40.4736 23.4824C41.3536 23.0224 42.2836 22.6724 43.2636 22.4324C44.2436 22.1924 45.1636 22.0724 46.0236 22.0724C46.1636 22.0724 46.3236 22.0724 46.5036 22.0724C46.6836 22.0724 46.7736 22.0924 46.7736 22.1324L46.3536 22.5824C45.7736 23.2024 45.3436 24.0024 45.0636 24.9824C44.7836 25.9424 44.6436 27.0724 44.6436 28.3724C44.6436 28.4724 44.6536 28.7224 44.6736 29.1224C44.6936 29.5024 44.7136 29.9424 44.7336 30.4424C44.7536 30.9224 44.7736 31.3624 44.7936 31.7624C44.8136 32.1424 44.8236 32.3924 44.8236 32.5124C45.8836 32.5124 46.8636 32.2324 47.7636 31.6724C48.6636 31.1124 49.4636 30.3824 50.1636 29.4824C50.8836 28.5824 51.4736 27.6124 51.9336 26.5724C52.3336 25.7724 52.7036 25.0624 53.0436 24.4424C53.4036 23.8224 53.7936 23.3324 54.2136 22.9724C54.6336 22.6124 55.1336 22.4324 55.7136 22.4324C56.0136 22.4324 56.3536 22.5324 56.7336 22.7324C57.1336 22.9124 57.3336 23.1424 57.3336 23.4224C57.3336 23.5424 57.2836 23.6024 57.1836 23.6024L56.8236 23.2124C56.5636 22.9524 56.2736 22.8224 55.9536 22.8224C55.2936 22.8224 54.7136 23.4624 54.2136 24.7424C54.0136 25.2624 53.7936 25.7624 53.5536 26.2424C53.3336 26.7224 53.0936 27.1724 52.8336 27.5924C52.3136 28.4524 51.6836 29.2524 50.9436 29.9924C50.2036 30.7324 49.3936 31.3424 48.5136 31.8224C47.6336 32.3024 46.7236 32.5924 45.7836 32.6924C46.7436 32.7324 47.4936 32.9924 48.0336 33.4724C48.5736 33.9324 49.0136 34.5024 49.3536 35.1824C49.6936 35.8624 50.0336 36.5624 50.3736 37.2824C50.6336 37.8224 50.9436 38.4024 51.3036 39.0224C51.6636 39.6224 52.0436 40.1924 52.4436 40.7324C52.8636 41.2724 53.2836 41.7024 53.7036 42.0224C54.1236 42.3624 54.5236 42.5324 54.9036 42.5324C55.3436 42.5324 55.6636 42.4424 55.8636 42.2624C56.0636 42.0824 56.1736 41.8124 56.1936 41.4524C56.2136 41.3924 56.2236 41.3324 56.2236 41.2724C56.2236 41.2124 56.2336 41.1524 56.2536 41.0924C56.2736 40.8924 56.3336 40.7924 56.4336 40.7924C56.6136 40.7924 56.7036 41.0524 56.7036 41.5724C56.7036 42.4724 55.9736 42.9224 54.5136 42.9224C53.4736 42.9224 52.6036 42.6924 51.9036 42.2324C51.2036 41.7724 50.6236 41.1424 50.1636 40.3424C49.7036 39.5224 49.2836 38.6024 48.9036 37.5824C48.4036 36.2224 47.8336 35.1324 47.1936 34.3124C46.5536 33.4924 45.7636 32.9824 44.8236 32.7824C44.7636 35.2224 44.3236 37.3324 43.5036 39.1124C42.7036 40.8924 41.5336 42.2624 39.9936 43.2224C38.4536 44.1824 36.5436 44.6624 34.2636 44.6624Z" fill="#DEB448"/>
<path d="M73.7803 34.3939C73.7803 47.7091 62.041 58.5379 47.5152 58.5379C32.9893 58.5379 21.25 47.7091 21.25 34.3939C21.25 21.0788 32.9893 10.25 47.5152 10.25C62.041 10.25 73.7803 21.0788 73.7803 34.3939Z" stroke="#DEB448" stroke-width="0.5"/>
<path d="M71.6591 34.3939C71.6591 46.5358 60.8714 56.4167 47.5152 56.4167C34.1589 56.4167 23.3712 46.5358 23.3712 34.3939C23.3712 22.252 34.1589 12.3712 47.5152 12.3712C60.8714 12.3712 71.6591 22.252 71.6591 34.3939Z" stroke="#DEB448" stroke-width="0.5"/>
</svg>
